<?xml version="1.0" standalone="no"?>
<!DOCTYPE svg PUBLIC "-//W3C//DTD SVG 20010904//EN"
        "http://www.w3.org/TR/2001/REC-SVG-20010904/DTD/svg10.dtd">
<svg version="1.0" xmlns="http://www.w3.org/2000/svg"
     width="90.000000pt" height="90.000000pt" viewBox="0 0 90.000000 90.000000"
     preserveAspectRatio="xMidYMid meet">

    <g transform="translate(0.000000,90.000000) scale(0.100000,-0.100000)"
       fill="#FFFFFF" stroke="none">
        <path d="M269 735 c-97 -36 -120 -54 -151 -122 -37 -83 -65 -191 -74 -287 l-7
-74 56 -37 c54 -36 131 -65 171 -65 12 0 27 9 34 20 11 18 8 22 -36 44 -48 26
-103 65 -90 66 4 0 22 -9 40 -19 113 -67 363 -67 476 0 18 10 36 19 40 19 13
-1 -43 -41 -92 -66 l-49 -26 21 -21 c20 -19 25 -20 76 -8 30 7 83 30 117 52
l62 40 -7 75 c-9 96 -37 204 -74 287 -28 61 -35 68 -89 96 -62 31 -133 49
-133 34 0 -5 29 -21 65 -37 88 -38 102 -60 18 -28 -60 23 -83 26 -193 26 -111
0 -133 -3 -195 -26 -58 -23 -66 -24 -45 -8 14 11 49 30 78 42 78 33 63 53 -19
23z m95 -266 c49 -39 26 -129 -34 -129 -63 0 -90 90 -39 133 27 22 41 22 73
-4z m245 4 c32 -27 37 -73 11 -106 -41 -52 -110 -26 -110 42 0 41 6 53 35 69
28 16 39 15 64 -5z"/>
    </g>
</svg>
